<?xml version="1.0" standalone="no"?>
<!DOCTYPE svg PUBLIC "-//W3C//DTD SVG 20010904//EN"
 "http://www.w3.org/TR/2001/REC-SVG-20010904/DTD/svg10.dtd">
<svg version="1.0" xmlns="http://www.w3.org/2000/svg"
 width="512.000000pt" height="512.000000pt" viewBox="0 0 512.000000 512.000000"
 preserveAspectRatio="xMidYMid meet">
<metadata>
Created by potrace 1.14, written by Peter Selinger 2001-2017
</metadata>
<g transform="translate(0.000000,512.000000) scale(0.100000,-0.100000)"
fill="#000000" stroke="none">
<path d="M1589 3611 l-24 -19 0 -992 0 -992 24 -19 c20 -17 40 -19 163 -19 77
0 148 5 158 10 31 17 36 62 35 349 l-1 273 61 -64 c33 -36 112 -120 175 -188
63 -68 171 -181 240 -252 l126 -128 177 0 c164 0 179 2 197 20 37 37 25 64
-66 160 -29 30 -61 64 -71 76 -10 12 -65 72 -123 134 -58 62 -116 125 -130
140 -14 15 -66 72 -116 126 -50 55 -108 117 -127 139 l-36 40 27 23 c15 13 67
62 117 110 49 47 131 124 180 171 310 292 315 299 281 347 -13 18 -28 19 -193
19 -172 0 -180 -1 -208 -23 -17 -13 -113 -103 -214 -200 -102 -98 -199 -190
-216 -207 -17 -16 -42 -40 -56 -52 l-25 -22 1 502 0 501 -23 28 -24 28 -143 0
c-126 0 -146 -2 -166 -19z"/>
<path d="M3192 1999 c-42 -16 -46 -34 -47 -212 -2 -230 -15 -217 213 -217 231
0 216 -14 218 211 1 234 12 221 -205 223 -89 0 -170 -2 -179 -5z"/>
</g>
</svg>
